<svg xmlns="http://www.w3.org/2000/svg" viewBox="0 0 8.62 16.19"><defs><style>.cls-1{fill:#fff;}.cls-1,.cls-2{stroke:#000;stroke-width:0.36px;}.cls-2{fill:none;}</style></defs><title>10.2.23</title><g id="Layer_2" data-name="Layer 2"><g id="SYMBOLS"><path class="cls-1" d="M3.12,13.48c1.29,0,1.82.84,1.77,1.51s-.93,1.06-2,1A2.5,2.5,0,0,1,.42,14.72c-.67-1.1.18-5.36,1.06-8.06S4.18.46,4.81.19s.48,3.73,1.32,5.94,2.31,4.29,2.31,4.61c0,.66-1.6,1.5-2,1.9a8.67,8.67,0,0,0-1.6,1.86"/><path class="cls-2" d="M.24,14.1c.24-1.16,2.33-1.88,3.37-2.29A10,10,0,0,1,8.26,11"/><path class="cls-2" d="M.29,12.24c.28-1,1.7-1.78,2-1.87a19.87,19.87,0,0,1,2.27-.8,8.09,8.09,0,0,1,3-.35"/><path class="cls-2" d="M.63,9.84A3.75,3.75,0,0,1,2.57,8.18a9.87,9.87,0,0,1,1.75-.59,5,5,0,0,1,2.39-.06"/><path class="cls-2" d="M1.42,6.85A4.82,4.82,0,0,1,3.61,5.49a4.61,4.61,0,0,1,2.27-.08"/><path class="cls-2" d="M2.75,3.54a1.76,1.76,0,0,1,1.36-.62A5.27,5.27,0,0,1,5.44,3"/></g></g></svg>