<svg xmlns="http://www.w3.org/2000/svg" viewBox="0 0 16.05 12.72"><defs><style>.cls-1{fill:#fff;stroke:#000;stroke-width:0.36px;}</style></defs><title>10.2.60</title><polygon class="cls-1" points="8.03 0.7 7.59 2.32 3.99 5.92 0.02 6.35 3.99 6.79 7.59 10.39 8.03 12.02 8.46 10.39 12.06 6.79 16.03 6.35 12.06 5.92 8.46 2.32 8.03 0.7"/><polygon points="8.03 3.12 6.7 4.44 7.26 5.92 8.81 5.92 9.37 4.45 8.03 3.12"/><polygon points="10.04 5.13 9.59 6.36 10.14 7.48 11.27 6.36 10.04 5.13"/><polygon points="8.84 6.79 7.24 6.79 6.58 8.15 8.03 9.6 9.49 8.13 8.84 6.79"/><polygon points="6.49 6.36 6.03 5.11 4.79 6.36 5.93 7.5 6.49 6.36"/></svg>