<svg xmlns="http://www.w3.org/2000/svg" viewBox="0 0 9.39 16.52"><defs><style>.cls-1{fill:#fff;stroke:#000;stroke-width:0.36px;}</style></defs><title>10.2.43</title><path class="cls-1" d="M2.25,10.17C1,10.26-.31,11.83.36,13.08s1.41,1.59,3,1a10.49,10.49,0,0,0,4.31-3.36A5.38,5.38,0,0,0,8.1,8.63,9.59,9.59,0,0,1,5.42,9.78,24.79,24.79,0,0,1,2.25,10.17Z"/><path class="cls-1" d="M8.1,8.63c1.41-.8,1.25-1.74.21-2.07-2.17-.67-1.65-.92-1.65-.92a5.3,5.3,0,0,0-2.3,1.05A2.69,2.69,0,0,1,1.58,7.75C.23,7.46.44,9,1.11,9.35a6.18,6.18,0,0,1,1.14.82,24.79,24.79,0,0,0,3.17-.39A9.59,9.59,0,0,0,8.1,8.63Z"/><path class="cls-1" d="M6.7,5.63c1.93-.79.72-2.68.22-3.53A6.84,6.84,0,0,0,4.4.22c2,1.6,1.18,3.24,1.75,3.62S3.79,3.33,2.73,4A3.38,3.38,0,0,0,.93,7.75l.21,0a1.14,1.14,0,0,1,.44,0A2.69,2.69,0,0,0,4.36,6.69a5.3,5.3,0,0,1,2.3-1.05Z"/><path class="cls-1" d="M3.31,14.1a10.49,10.49,0,0,0,4.31-3.36,3.76,3.76,0,0,0,.27-.67L8,9.65c1.44.16,1,0,1.21,1.47S6.8,15,5.44,15.44,3,17,1.75,15.91,3.31,14.1,3.31,14.1Z"/></svg>