<svg xmlns="http://www.w3.org/2000/svg" viewBox="0 0 16.27 13.26"><defs><style>.cls-1{fill:#fff;}.cls-1,.cls-2{stroke:#000;stroke-width:0.36px;}.cls-2{fill:none;}</style></defs><title>10.2.46</title><g id="Layer_2" data-name="Layer 2"><g id="SYMBOLS"><path class="cls-1" d="M.27,8.55c.31.57,2.33,4.53,2.33,4.53l7.21-.49s4.56-4,5.67-6.32A8.19,8.19,0,0,0,16,2,12.2,12.2,0,0,1,13.94,5a8.08,8.08,0,0,1-1.89,1.09,16.34,16.34,0,0,0-1-2.68A24.25,24.25,0,0,0,9.42,1.08s.35,2.2-.18,3.08A8.64,8.64,0,0,1,7.83,5.83,27.11,27.11,0,0,0,4.32,1.92,10.59,10.59,0,0,0,.54.29S3.88,3.94,3.57,6,.27,8.55.27,8.55Z"/><path class="cls-2" d="M1.86,11.54C3.65,11.08,4.41,9,5.64,8.9s3.8,2.11,4.2,3.65"/></g></g></svg>