<svg xmlns="http://www.w3.org/2000/svg" viewBox="0 0 16.96 8.1"><defs><style>.cls-1{fill:#fff;}.cls-1,.cls-2{stroke:#000;stroke-width:0.36px;}.cls-2{fill:none;}</style></defs><title>10.2.42</title><g id="Layer_2" data-name="Layer 2"><g id="SYMBOLS"><path class="cls-1" d="M16.71,2.81C17.15,1.22,15.5,0,13.91.21l-.12.07c-.47.34-2.22,2.53-2.85,2.63S3.65,2.68,3,3,.22,4.84.18,5.64A2.43,2.43,0,0,0,2.57,7.92c.87,0,2-1.54,2.51-1.65,2.13-.46,5.15.69,7.4-.06A27,27,0,0,0,16.63,3l.05-.08Z"/><path class="cls-2" d="M16.68,2.79A2.44,2.44,0,0,1,13.92.24"/></g></g></svg>