<svg xmlns="http://www.w3.org/2000/svg" viewBox="0 0 17.07 16.22"><defs><style>.cls-1{fill:#fff;stroke:#000;stroke-width:0.36px;}</style></defs><title>10.2.38</title><g id="Layer_2" data-name="Layer 2"><g id="SYMBOLS"><path class="cls-1" d="M8.59,8.05s-1.14-5.4,0-6.84S13-.51,13.09,2.71C13.15,4.39,8.59,8.05,8.59,8.05Z"/><path class="cls-1" d="M8.53,8.17s1.14,5.4,0,6.84S4.14,16.73,4,13.51C4,11.83,8.53,8.17,8.53,8.17Z"/><path class="cls-1" d="M8.48,8.22s5.25,1.72,5.92,3.43-.7,4.66-3.55,3.14C9.36,14,8.48,8.22,8.48,8.22Z"/><path class="cls-1" d="M8.41,8.11S3.16,6.39,2.49,4.68,3.19,0,6,1.54C7.52,2.33,8.41,8.11,8.41,8.11Z"/><path class="cls-1" d="M8.6,8.05s4.26-3.51,6.07-3.16,3.55,3.09.75,4.68C14,10.4,8.6,8.05,8.6,8.05Z"/><path class="cls-1" d="M8.47,8.05S4.2,11.55,2.4,11.21s-3.55-3.09-.75-4.68C3.11,5.7,8.47,8.05,8.47,8.05Z"/><path class="cls-1" d="M9.87,8.09A1.38,1.38,0,1,1,8.49,6.71,1.37,1.37,0,0,1,9.87,8.09Z"/></g></g></svg>