<svg xmlns="http://www.w3.org/2000/svg" viewBox="0 0 16.21 15.39"><defs><style>.cls-1{fill:#fff;stroke:#000;stroke-width:0.36px;}</style></defs><title>10.2.44</title><path class="cls-1" d="M6.63,12.18c2.48,0,2.51-2,2.51-4.49s0-4.48-2.51-4.48S.18,5.22.18,7.69,4.16,12.18,6.63,12.18Z"/><path class="cls-1" d="M10.93,15.21a1.65,1.65,0,1,0-1.66-1.65A1.64,1.64,0,0,0,10.93,15.21Z"/><path class="cls-1" d="M10.93,3.48A1.65,1.65,0,1,0,9.27,1.83,1.64,1.64,0,0,0,10.93,3.48Z"/><path class="cls-1" d="M14.38,9.35a1.65,1.65,0,1,0-1.65-1.66A1.65,1.65,0,0,0,14.38,9.35Z"/></svg>