<svg xmlns="http://www.w3.org/2000/svg" viewBox="0 0 13.12 16.35"><defs><style>.cls-1{fill:#fff;stroke:#000;stroke-width:0.36px;}</style></defs><title>10.2.11</title><g id="Layer_2" data-name="Layer 2"><g id="SYMBOLS"><path class="cls-1" d="M6.57,16.17c3.69-.1,2.14-1.42,1.45-5.63S9.33,5.6,9.33,5.6c1.05-.41,2.19-.57,2.52-1.12s1.39-2.56,1-2.68-1,1.94-1.61,2.26S8.57,5.57,8.34,5.18,10.63,1.08,9.63.87,7.58,6,7.09,6,7.5.18,6.57.18h0C5.62.18,6.52,6,6,6S4.49.65,3.49.87,5,4.79,4.78,5.18,2.42,4.39,1.87,4.06.64,1.69.26,1.8s.67,2.12,1,2.68,1.47.71,2.52,1.12c0,0,2,.72,1.31,4.94s-2.24,5.53,1.46,5.63Z"/></g></g></svg>