<svg xmlns="http://www.w3.org/2000/svg" viewBox="0 0 20.19 16.19"><defs><style>.cls-1{fill:#fff;stroke:#000;stroke-width:0.36px;}</style></defs><title>10.2.35</title><path class="cls-1" d="M9.69,16H9.34s-2.07-7.14-4-8.25S1,6.08.52,6.38s-.42-1,0-2.28S1.63,1.82,1.87,2.33s2.22,2,2.73,2.79S6,7.94,6.28,7.88,3.76,1.58,2.83,1.22,4.06.05,5.35.38,8.59,1.22,7.9,1.7,6.58,5.54,6.82,6.8,7.63,10.52,8,10.49s.78-3.72.27-4.59A19.43,19.43,0,0,0,7,4a3.61,3.61,0,0,1,.25-1.1A2.77,2.77,0,0,1,7.9,1.7c.39-.29,0-.59-1.29-1L6.29.63A12.17,12.17,0,0,1,7.51.23C8.68,0,11.89.77,11,1.19S9.16,3.71,9.25,5.48a29.3,29.3,0,0,1-.57,5.25c-.12.81.2,2.78.6,2.78s1.76-2.33.9-5.21c-.59-2-.92-2.2-.92-2.2V6c0-.19,0-.38,0-.56-.09-1.77.9-3.87,1.77-4.29a4.26,4.26,0,0,1,1.38.49c1,.5,1.11,1,.92,1.55s-1-.23-1.29.68-1.18,5.83-.62,5.95C11.74,9.92,15,2,14.17,1.4c-1.17-.84.09-2.4,4,.92C19.38,3.39,20.23,4.7,20,6s-.43.23-1.74-.18-3.51-.27-5,2.61S9.07,13.76,9.69,16Z"/></svg>