<svg xmlns="http://www.w3.org/2000/svg" viewBox="0 0 16.32 15.35"><defs><style>.cls-1{fill:#fff;}.cls-1,.cls-2{stroke:#000;stroke-width:0.36px;}.cls-2{fill:none;}</style></defs><title>10.2.58</title><path class="cls-1" d="M.42,1.57C-.33,2.66.81,3.92,2,4.54S5.44,6.09,5.9,7.46a30.18,30.18,0,0,1,.69,5.42c0,.92.57,2.29,2,2.29A2.18,2.18,0,0,0,11,13c-.06-1.26-.47-3.37,0-4.29s4.1-3.77,4.67-4.51a2.29,2.29,0,0,0,0-2.8,2.68,2.68,0,0,0-3.24-1C11,.89,10,2.14,8.52,2.2A10.94,10.94,0,0,1,3.33.89,2,2,0,0,0,.42,1.57Z"/><path class="cls-2" d="M2.87,3.23S8.24,5.4,8.42,5.74s.57,6.74.51,6.92"/><line class="cls-2" x1="13.44" y1="2.83" x2="8.45" y2="5.76"/></svg>