<svg xmlns="http://www.w3.org/2000/svg" viewBox="0 0 16.43 6.51"><defs><style>.cls-1{fill:#fff;}.cls-1,.cls-2{stroke:#000;stroke-width:0.36px;}.cls-2{fill:none;}</style></defs><title>10.2.34</title><g id="Layer_2" data-name="Layer 2"><g id="SYMBOLS"><path class="cls-1" d="M.18,4.46c0,1.23.68,1.85,2.07,1.85s11.68,0,12.72,0,1.32-1,1.28-1.71a1.77,1.77,0,0,0-1.67-1.71c-1.11,0-5,0-5,0a4,4,0,0,0,.07-1.57A3.66,3.66,0,0,0,6.77.18C5.69.24,5.22,1.39,4.67,2.34c-.27.46-1.94.3-2.69.3A1.73,1.73,0,0,0,.18,4.46Z"/><path class="cls-2" d="M5.65.8c-.41.61,1.07,1.07,1.57,1,.8-.05,2.44,0,2.37-.6"/><path class="cls-2" d="M1.31,2.79c.57-.21.83,1,.83,1.62,0,.89-.1,2-.73,1.79"/><line class="cls-2" x1="3.33" y1="3.58" x2="5.8" y2="3.58"/><line class="cls-2" x1="6.89" y1="5.29" x2="10.02" y2="5.29"/><line class="cls-2" x1="11.22" y1="4.03" x2="13.69" y2="4.01"/></g></g></svg>