<svg xmlns="http://www.w3.org/2000/svg" viewBox="0 0 7.5 18.02"><defs><style>.cls-1{fill:#fff;}.cls-1,.cls-2{stroke:#000;stroke-width:0.36px;}.cls-2{fill:none;}</style></defs><title>10.2.32</title><g id="Layer_2" data-name="Layer 2"><g id="SYMBOLS"><path class="cls-1" d="M3.75.32S7.32,5.64,7.32,8.47s-1.9,6.7-3.57,6.7h0c-1.67,0-3.57-3.86-3.57-6.7S3.75.32,3.75.32Z"/><line class="cls-1" x1="3.75" y1="1.8" x2="3.75" y2="18.02"/><path class="cls-2" d="M3.75,5.23c0-.68-1.57-1.6-1.57-1.6"/><path class="cls-2" d="M3.75,9.68c0-.68-3-2.44-3-2.44"/><path class="cls-2" d="M3.75,13.5c0-.68-2.58-2.2-2.58-2.2"/><path class="cls-2" d="M3.74,5.23c0-.68,1.58-1.6,1.58-1.6"/><path class="cls-2" d="M3.74,9.68c0-.68,3-2.44,3-2.44"/><path class="cls-2" d="M3.74,13.5c0-.68,2.59-2.2,2.59-2.2"/></g></g></svg>