<svg xmlns="http://www.w3.org/2000/svg" viewBox="0 0 13.9 15.96"><defs><style>.cls-1{fill:#fff;}.cls-1,.cls-2,.cls-3{stroke:#000;stroke-width:0.36px;}.cls-3{fill:none;}</style></defs><title>10.2.22</title><path class="cls-1" d="M10.08,1.06A8,8,0,1,1,.18,13.57a5.48,5.48,0,0,1,.93-2.87A7.33,7.33,0,0,1,3.36,8.42,5,5,0,0,1,10,1Z"/><path class="cls-2" d="M7.19,5.13a.38.38,0,0,1-.38.38.37.37,0,0,1-.37-.38.36.36,0,0,1,.37-.37A.37.37,0,0,1,7.19,5.13Z"/><line class="cls-3" x1="3.36" y1="8.42" x2="7.06" y2="5.41"/><path class="cls-3" d="M3,2.52c-.57.83.85,3,3.76,2.64"/><path class="cls-3" d="M7.73.21c-1.47-.07-2.57,3-1,4.86"/><path class="cls-3" d="M12.87,4.16c-.77-1.51-5.08-1.67-6,.9"/><path class="cls-3" d="M11.52,13.27c1.55-1.72.37-8.78-4.56-8.14"/></svg>