<svg xmlns="http://www.w3.org/2000/svg" viewBox="0 0 19.31 16.87"><defs><style>.cls-1{fill:#fff;}.cls-1,.cls-2{stroke:#000;stroke-width:0.36px;}.cls-2{fill:none;}</style></defs><title>10.2.30</title><path class="cls-1" d="M10.44,2.76a1.84,1.84,0,0,0-1,0c-.36.11-.49.29-.51.5"/><path class="cls-1" d="M6,4.34a2.73,2.73,0,0,0-1.42,0A1.41,1.41,0,0,0,4,5.42"/><path class="cls-1" d="M18.56.19c-.41-.09-1.35.5-1.76.5s-.38-.32-.85,0,0-.63-.93,0a26.22,26.22,0,0,1-3.18,1.6c-1.07.5-3.73,1.18-4.92,1.7A14.18,14.18,0,0,0,2.24,6.8C.87,8.27-.4,10.14.46,12.51a6.15,6.15,0,0,0,5.67,4.16c2.82.16,4.9-.41,4.9-.75s-.89-.74-2.83-.74S3,14.36,2.56,13.46,4.3,8.83,5.34,8.74,7.39,9,8.18,8.56a1.3,1.3,0,0,0,.25-.2l0,1.15.66.59,1.13,0,.56.32-.32-.52.84.07-.56-.27.79-.05-.7-.18.76-.2L10,9.24V8.11a4.33,4.33,0,0,0,1.67-.77A8.63,8.63,0,0,1,14,5.52a.58.58,0,0,1,.63.26c.22.56.17,1.56.52,1.7a4.88,4.88,0,0,0,1.46.18l-.43-.36.82.11-.5-.27.74.05L16.64,7l.52-.15-1.31,0,0-.72a3.18,3.18,0,0,0-.38-1.49c-.34-.36,1.21-.72,1.08-1.33s.59-.18.84-.93S19,1.54,19,1.18s.27-.4.15-.65S18.77.24,18.56.19Z"/><path class="cls-2" d="M10,8.11l0-.83A2.4,2.4,0,0,0,8,6.15c-1.15.11-1.73.56-1.9,1"/><path class="cls-2" d="M15.38,4.53C15,4,14.59,3.35,14.15,3.35s-1,.32-1,.74"/><polyline class="cls-2" points="18.99 0.93 18.5 1.02 18.09 1.41 17.59 1.41 17.12 1.95 15.85 1.91 15.41 2.52"/><path class="cls-2" d="M3.57,14.22C2.51,13.79.12,12.11.18,11"/></svg>