<svg xmlns="http://www.w3.org/2000/svg" viewBox="0 0 11.02 16.47"><defs><style>.cls-1{fill:#fff;stroke:#000;stroke-width:0.36px;}</style></defs><title>10.2.5</title><path class="cls-1" d="M6.16,4.17c0,.62-.29,1.12-.65,1.12s-.65-.5-.65-1.12.29-1.11.65-1.11S6.16,3.56,6.16,4.17Z"/><path class="cls-1" d="M6.33,6.69c0,.77-.37,1.39-.82,1.39S4.7,7.46,4.7,6.69s.36-1.4.81-1.4S6.33,5.91,6.33,6.69Z"/><path class="cls-1" d="M6.53,9.83c0,1-.46,1.75-1,1.75s-1-.78-1-1.75.46-1.74,1-1.74S6.53,8.87,6.53,9.83Z"/><polygon class="cls-1" points="4.83 5.87 1.79 0.08 4.71 6.34 4.83 5.87"/><polygon class="cls-1" points="4.68 6.63 0.13 2.22 4.72 7.09 4.68 6.63"/><polygon class="cls-1" points="4.85 7.55 0.99 12.88 5.03 7.84 4.85 7.55"/><polygon class="cls-1" points="4.47 9.87 4.27 9.97 3.27 16.43 4.52 10.31 4.47 9.87"/><polygon class="cls-1" points="6.18 5.87 9.22 0.08 6.3 6.34 6.18 5.87"/><polygon class="cls-1" points="6.33 6.63 10.88 2.22 6.3 7.09 6.33 6.63"/><polygon class="cls-1" points="6.16 7.55 10.02 12.88 5.99 7.84 6.16 7.55"/><polygon class="cls-1" points="6.54 9.87 6.75 9.97 7.75 16.43 6.49 10.31 6.54 9.87"/></svg>