<svg xmlns="http://www.w3.org/2000/svg" viewBox="0 0 16.4 11.32"><defs><style>.cls-1{fill:#fff;}.cls-1,.cls-2{stroke:#000;stroke-width:0.36px;}.cls-2{fill:none;}</style></defs><title>10.2.24</title><g id="Layer_2" data-name="Layer 2"><g id="SYMBOLS"><path class="cls-1" d="M.21,7.64c-.37,1,3.14,4.48,8.39,3.23s8-4,7.56-7S11.44,0,10.94.2,3.35,3.5,2.52,4.53A14.61,14.61,0,0,0,.21,7.64Z"/><path class="cls-2" d="M2.54,4.52C2,5.68,1.26,8.75,4.34,9.22S11,9.25,12.76,8,16.16,5.1,16,3.38"/><path class="cls-2" d="M5.7,2.62c-.76,1.09-1.33,2.9-.11,3.56a6.88,6.88,0,0,0,6.54-.56C14.61,4,15.25,2.86,15.12,2"/><path class="cls-2" d="M8,1.5c-.49.66-1.36,2.44-.31,3a4.78,4.78,0,0,0,4.46-.42c1.45-1,2.06-2.11,1.93-2.9"/><path class="cls-2" d="M9.88.66c-.46.72-.42,2.08.83,2.12S13.58,2,13.39.8"/></g></g></svg>