<svg xmlns="http://www.w3.org/2000/svg" viewBox="0 0 16.76 15.49"><defs><style>.cls-1{fill:#fff;stroke:#000;stroke-width:0.36px;}.cls-2{fill:#231f20;}</style></defs><title>10.2.25</title><g id="Layer_2" data-name="Layer 2"><g id="SYMBOLS"><path class="cls-1" d="M5.48,14.18A6.61,6.61,0,0,0,4,14.65c-.2.2,2.56,0,2.92.21a2.52,2.52,0,0,0,2.38.25c1-.49,2.93.73,2.1-.1s2.38.48.61-.56-1.76-.73-2.12-.78S9,13.5,9.47,13s1.44-2.43,2.46-2.87,1-1.39,1.78-2.22A10.32,10.32,0,0,0,15.78,5c.29-.8,1-3,.75-3.63A1.91,1.91,0,0,0,15,.18c-.54,0-1.48.56-2.09,2.31S10.78,4.83,10.59,7s-.76.73-1.09,2.33-1.18,1.15-1.1.37A16.94,16.94,0,0,1,9.25,5c.61-1.26,1-3.33.42-3.89s-1.8-1.2-2.32.41S5.67,4.46,5.84,5.41,4.7,7.53,5.7,9s-.17,1,.53,2-.15,1.25-.53.35-1.44-2-1.64-3.44a32.8,32.8,0,0,1-.39-3.56c0-.62-1.09-1.21-1.11.06s.7,2.55,0,3-1.24-.73-2-.12S.17,9.36.83,9.53a2.19,2.19,0,0,1,1.78,1.41C3,12,4,12.6,4.38,13.28A2.24,2.24,0,0,0,5.48,14.18Z"/><path d="M14.58.42c-.45.46,1.32,1.61,1.71,1S14.88.13,14.58.42Z"/><path d="M7.89,1.18c-.09.56,1.53,1.29,1.78.58S8,.38,7.89,1.18Z"/><path d="M2.75,4.08c0,.31.73.41.75.09S2.8,3.62,2.75,4.08Z"/><path d="M.49,8.92c.36.17.7-1.32.38-1.49S0,8.68.49,8.92Z"/><path class="cls-2" d="M6.7,13.4c.14.14.2.32.13.39s-.25,0-.39-.13-.2-.32-.12-.39S6.56,13.26,6.7,13.4Z"/><path class="cls-2" d="M5.43,12.48c.14.14.19.32.13.39s-.25,0-.39-.13S5,12.42,5,12.35,5.29,12.33,5.43,12.48Z"/><path class="cls-2" d="M5.26,11.5c.15.14.21.32.13.39s-.24,0-.38-.13-.21-.32-.13-.39S5.12,11.36,5.26,11.5Z"/><path class="cls-2" d="M5.76,13.4c.14.15.2.32.13.38s-.25,0-.39-.12-.2-.32-.13-.39S5.62,13.26,5.76,13.4Z"/><path class="cls-2" d="M3.7,11.19c.14.14.2.31.13.39s-.25,0-.4-.13-.19-.32-.13-.39S3.56,11.05,3.7,11.19Z"/><path class="cls-2" d="M4.48,11.93c.14.14.2.31.13.38s-.25,0-.39-.13-.2-.31-.13-.38S4.33,11.78,4.48,11.93Z"/><path class="cls-2" d="M6.38,12.36c.15.14.21.32.14.39s-.24,0-.39-.13-.2-.32-.13-.39S6.25,12.21,6.38,12.36Z"/><path class="cls-2" d="M3.53,7.8c0,.21,0,.38-.14.39s-.2-.14-.22-.34,0-.38.13-.39S3.5,7.61,3.53,7.8Z"/><path class="cls-2" d="M8.17,13.18c0,.2,0,.37-.13.38s-.21-.14-.23-.34.05-.37.15-.38S8.15,13,8.17,13.18Z"/><path class="cls-2" d="M3.37,5.09c0,.21,0,.38-.14.39S3,5.33,3,5.13s0-.37.14-.38S3.35,4.89,3.37,5.09Z"/><path class="cls-2" d="M3.37,9.29c.08.19.07.37,0,.41S3.11,9.63,3,9.44,3,9.07,3.06,9,3.29,9.11,3.37,9.29Z"/><path class="cls-2" d="M3.94,9.19c.07.18.07.36,0,.4s-.23-.07-.31-.26-.07-.37,0-.41S3.86,9,3.94,9.19Z"/><path class="cls-2" d="M4.73,10.71c.08.19.07.37,0,.41s-.23-.08-.31-.27-.07-.36,0-.4S4.65,10.52,4.73,10.71Z"/><path class="cls-2" d="M4,10.52c.08.18.07.37,0,.41s-.24-.08-.32-.27-.07-.37,0-.41S4,10.33,4,10.52Z"/><path class="cls-2" d="M2.93,8.21c.09.19.07.37,0,.41s-.23-.08-.31-.26S2.53,8,2.62,8,2.86,8,2.93,8.21Z"/><path class="cls-2" d="M1.65,7.87c.14.14.21.32.13.39s-.24,0-.38-.13-.2-.32-.14-.39S1.51,7.73,1.65,7.87Z"/><path class="cls-2" d="M2.29,8.87c.14.13.2.31.13.38s-.25,0-.39-.13-.2-.31-.13-.39S2.15,8.72,2.29,8.87Z"/><path class="cls-2" d="M3,10c.14.14.2.32.13.39s-.24,0-.39-.13-.2-.31-.13-.38S2.88,9.86,3,10Z"/><path class="cls-2" d="M1.35,8.83c.15.15.21.32.14.4s-.25,0-.39-.13S.9,8.78,1,8.71,1.21,8.69,1.35,8.83Z"/><path class="cls-2" d="M8.05,11.89c0,.2-.08.36-.18.36s-.18-.16-.18-.36.08-.37.18-.37S8.05,11.69,8.05,11.89Z"/><path class="cls-2" d="M3.55,6.63c0,.2-.08.36-.18.36s-.18-.16-.18-.36.08-.37.18-.37S3.55,6.43,3.55,6.63Z"/><path class="cls-2" d="M8,2.32c-.06.19-.2.31-.3.28s-.11-.22,0-.41.21-.31.3-.28S8.07,2.13,8,2.32Z"/><path class="cls-2" d="M15.79,2.23c-.07.18-.2.31-.3.27s-.11-.21,0-.41.2-.31.3-.27S15.86,2,15.79,2.23Z"/><path class="cls-2" d="M14.38,1.75c-.07.2-.2.32-.3.28s-.11-.22,0-.41.2-.3.3-.27S14.46,1.57,14.38,1.75Z"/><path class="cls-2" d="M13.79,2.76c-.07.2-.2.32-.3.29s-.12-.23,0-.42.2-.31.3-.27S13.86,2.58,13.79,2.76Z"/><path class="cls-2" d="M14.87,2.46c-.07.18-.2.31-.3.27s-.11-.22,0-.41.21-.31.3-.27S15,2.26,14.87,2.46Z"/><path class="cls-2" d="M15.74,3.27c-.07.2-.21.32-.31.29s-.11-.22,0-.41.21-.31.31-.28S15.81,3.09,15.74,3.27Z"/><path class="cls-2" d="M13.87,3.78c-.07.19-.21.32-.3.28s-.11-.22,0-.4.2-.31.3-.28S13.94,3.6,13.87,3.78Z"/><path class="cls-2" d="M15.07,4c-.07.19-.2.31-.3.28s-.11-.22,0-.41.2-.32.29-.27S15.15,3.83,15.07,4Z"/><path class="cls-2" d="M12.51,5.85c-.07.19-.2.31-.3.28s-.11-.22,0-.41.21-.31.3-.28S12.58,5.66,12.51,5.85Z"/><path class="cls-2" d="M12.85,4.64c-.07.19-.2.32-.3.28s-.11-.22,0-.41.21-.32.3-.27S12.93,4.45,12.85,4.64Z"/><path class="cls-2" d="M9.85,10.58c-.07.18-.2.31-.3.28s-.11-.22,0-.41.2-.31.3-.28S9.92,10.39,9.85,10.58Z"/><path class="cls-2" d="M14.31,6.37c-.07.19-.2.31-.3.28s-.11-.22,0-.41.21-.31.3-.28S14.38,6.19,14.31,6.37Z"/><path class="cls-2" d="M10.34,9.35c-.07.18-.2.31-.3.27s-.11-.22,0-.4.2-.32.29-.28S10.42,9.16,10.34,9.35Z"/><path class="cls-2" d="M12.2,8c-.07.18-.21.31-.3.27s-.11-.22,0-.41.2-.31.3-.27S12.27,7.77,12.2,8Z"/><path class="cls-2" d="M13.36,7.41c-.14.16-.31.23-.38.16s0-.24.09-.39.31-.23.38-.16S13.49,7.26,13.36,7.41Z"/><path class="cls-2" d="M10.8,10.28c-.13.15-.3.22-.37.16s0-.25.09-.4.3-.22.37-.16S10.93,10.12,10.8,10.28Z"/><path class="cls-2" d="M12.12,9.28c-.13.15-.3.22-.38.16s0-.24.1-.4.3-.23.38-.16S12.25,9.12,12.12,9.28Z"/><path class="cls-2" d="M11.59,6.37c0,.19-.15.34-.25.32s-.15-.2-.11-.4.15-.34.25-.32S11.63,6.17,11.59,6.37Z"/><path class="cls-2" d="M8.9,12.45c0,.19-.15.34-.25.32s-.15-.2-.11-.4.15-.34.25-.32S8.94,12.25,8.9,12.45Z"/><path class="cls-2" d="M9.63,11.7c0,.19-.15.34-.25.32s-.15-.19-.11-.4.16-.34.26-.32S9.67,11.5,9.63,11.7Z"/><path class="cls-2" d="M12.43,6.93c-.07.19-.21.32-.3.28s-.12-.22,0-.4.2-.32.29-.28S12.5,6.75,12.43,6.93Z"/><path class="cls-2" d="M15.16,5.2c-.07.19-.21.31-.3.28s-.11-.22,0-.4.21-.32.3-.28S15.23,5,15.16,5.2Z"/><path class="cls-2" d="M11.29,9c-.07.18-.21.31-.3.27s-.11-.22,0-.41.21-.31.3-.28S11.36,8.77,11.29,9Z"/><path class="cls-2" d="M7.94,4.47c-.07.19-.21.32-.3.28s-.12-.21,0-.41.21-.31.3-.27S8,4.29,7.94,4.47Z"/><path class="cls-2" d="M14.26,4.83c-.07.18-.2.31-.3.27s-.11-.22,0-.41.21-.31.3-.27S14.33,4.64,14.26,4.83Z"/><path class="cls-2" d="M13.41,5.94c-.07.19-.21.31-.3.28s-.11-.23,0-.41.21-.31.3-.28S13.48,5.75,13.41,5.94Z"/><path class="cls-2" d="M7.5,5.6c-.07.19-.2.31-.3.28s-.11-.22,0-.41.2-.32.3-.28S7.57,5.41,7.5,5.6Z"/><path class="cls-2" d="M6.65,6.12c-.08.19-.21.31-.31.28s-.11-.22,0-.41.21-.31.3-.27S6.72,5.93,6.65,6.12Z"/><path class="cls-2" d="M8.85,13.67c-.07.19-.2.32-.3.28s-.11-.22,0-.4.21-.32.3-.28S8.92,13.48,8.85,13.67Z"/><path class="cls-2" d="M6.7,4.86c-.07.19-.2.31-.3.27s-.11-.21,0-.4.21-.31.3-.28S6.77,4.67,6.7,4.86Z"/><path class="cls-2" d="M9,4c-.07.19-.21.32-.3.28s-.11-.22-.05-.41.21-.31.3-.27S9,3.81,9,4Z"/><path class="cls-2" d="M8.62,5.18c-.08.19-.21.31-.31.28s-.11-.22,0-.41.21-.31.3-.27S8.68,5,8.62,5.18Z"/><path class="cls-2" d="M6.27,7.39c0,.2-.11.36-.22.34s-.16-.18-.14-.38S6,7,6.13,7,6.29,7.18,6.27,7.39Z"/><path class="cls-2" d="M7.36,8.32c0,.19-.12.35-.22.34S7,8.48,7,8.28s.13-.36.22-.35S7.38,8.11,7.36,8.32Z"/><path class="cls-2" d="M7.27,7c0,.2-.11.36-.21.35S6.89,7.2,6.91,7s.12-.36.22-.34S7.3,6.84,7.27,7Z"/><path class="cls-2" d="M8.13,6.39c0,.2-.12.35-.21.34s-.17-.18-.15-.38S7.89,6,8,6,8.15,6.18,8.13,6.39Z"/><path class="cls-2" d="M8.61,11.36c0,.21-.12.36-.22.35s-.16-.18-.14-.38.12-.36.22-.35S8.63,11.17,8.61,11.36Z"/><path class="cls-2" d="M8.07,7.69c0,.2-.12.36-.23.35s-.16-.18-.14-.39.12-.35.22-.34S8.09,7.5,8.07,7.69Z"/><path class="cls-2" d="M7.88,10.76c0,.2-.11.36-.21.35s-.17-.18-.15-.38.12-.36.22-.35S7.9,10.56,7.88,10.76Z"/><path class="cls-2" d="M8,9.18c0,.2-.12.36-.22.34s-.17-.18-.14-.38.11-.35.21-.34S8,9,8,9.18Z"/><path class="cls-2" d="M11.33,7.76c0,.2-.12.36-.21.35S11,7.93,11,7.72s.12-.35.22-.34S11.35,7.56,11.33,7.76Z"/><path class="cls-2" d="M7,9.55c.06.2,0,.38-.07.41s-.22-.11-.28-.3,0-.37.06-.4S7,9.36,7,9.55Z"/><path class="cls-2" d="M6.48,8.52c.06.19,0,.37-.06.41s-.23-.11-.29-.3,0-.37.06-.4S6.42,8.33,6.48,8.52Z"/><path class="cls-2" d="M7.08,10.9c.06.19,0,.37-.07.4s-.22-.1-.29-.29,0-.38.07-.41S7,10.7,7.08,10.9Z"/><path class="cls-2" d="M7.61,13.46c.06.19,0,.37-.07.4s-.22-.1-.29-.29,0-.37.08-.4S7.55,13.27,7.61,13.46Z"/><path class="cls-2" d="M7.36,12.21c.07.19,0,.37-.06.4s-.23-.09-.29-.29,0-.37.07-.4S7.31,12,7.36,12.21Z"/><path class="cls-2" d="M8.45,3.16c-.07.19-.2.31-.29.28S8,3.23,8.12,3s.2-.32.3-.29S8.53,3,8.45,3.16Z"/><path class="cls-2" d="M7.41,3.71c-.06.19-.2.31-.3.28s-.11-.22,0-.41.21-.31.3-.27S7.49,3.52,7.41,3.71Z"/><path class="cls-2" d="M9.45,2.75c0,.2-.08.37-.18.37S9.09,3,9.09,2.75s.08-.36.18-.36S9.45,2.55,9.45,2.75Z"/></g></g></svg>