<svg xmlns="http://www.w3.org/2000/svg" viewBox="0 0 10.57 16.38"><defs><style>.cls-1{fill:#fff;}.cls-1,.cls-2{stroke:#000;stroke-width:0.36px;}.cls-2{fill:none;}</style></defs><title>10.2.36</title><path class="cls-1" d="M7.94.79a10.19,10.19,0,0,1,2.45,7.1c0,4.59-2.29,8.31-5.1,8.31S.18,12.48.18,7.89A10.19,10.19,0,0,1,2.63.79C3.4,0,4.31.2,5.29.2S7.17,0,7.94.79Z"/><path class="cls-2" d="M1,3.39c1.35,0,5.71-2,6.19-3.08"/><path class="cls-2" d="M.3,6.08c4.09,0,8-2.92,8.51-4.2"/><path class="cls-2" d="M2.29,14.62c4,0,7.18-2.25,7.67-3.38"/><path class="cls-2" d="M1.29,13.06c4-.07,8.61-3.58,9.09-4.69"/><path class="cls-2" d="M.2,8.58C4.3,8.58,9.27,5.23,9.78,4"/><path class="cls-2" d="M.54,11c3.83,0,9.2-3.7,9.72-5"/><path class="cls-2" d="M9.57,3.38c-1.47,0-5.75-1.92-6.24-3"/><path class="cls-2" d="M10.27,6.11c-4,0-8.09-3-8.55-4.17"/><path class="cls-2" d="M8.27,14.62c-3.73,0-6.83-2-7.59-3.16"/><path class="cls-2" d="M9.28,13.06C5.44,13,.92,9.72.19,8.5"/><path class="cls-2" d="M10.37,8.58C6.08,8.58,1.32,5.29.76,4"/><path class="cls-2" d="M10,11C6.14,11,.83,7.3.31,6"/></svg>