<svg xmlns="http://www.w3.org/2000/svg" viewBox="0 0 18.03 10.49"><defs><style>.cls-1{fill:#fff;}.cls-1,.cls-2{stroke:#000;stroke-width:0.36px;}.cls-2{fill:none;}</style></defs><title>10.2.37</title><path class="cls-1" d="M14.38,7.19a14.34,14.34,0,0,0-.6-3.9C13.27,2.1,12.23.85,11.56,1.14s-.29,1.41.07,2.3,1.93,3.42,1.93,3.42"/><path class="cls-1" d="M14.38,7.19s-3,2.26-3.74,2.63-1.87.77-2.27.23.48-1.42.93-1.63a11.25,11.25,0,0,1,4.26-1.56"/><path class="cls-1" d="M8.41,4.55a11.88,11.88,0,0,0-2.7,1.07c-.82.3-1.38,1-1,1.64s1.77.07,2.4-.33A23.56,23.56,0,0,0,9.26,5a10.57,10.57,0,0,0,.08-2.82C9.23,1.7,8.66.08,7.63.36,7,.55,7.19,1.51,7.45,2.07S8.41,4.55,8.41,4.55Z"/><path class="cls-1" d="M4.74,2.77A11.73,11.73,0,0,1,3.82,1.4c-.12-.29-.3-1,.29-1.18S5.44.84,5.56,1.4A3.91,3.91,0,0,1,5.44,3,8.64,8.64,0,0,1,4,4.37c-.48.26-1.7.56-2,0a.75.75,0,0,1,.59-1.19Z"/><path class="cls-1" d="M2.3,1.7S1,2.14.56,1.92A.88.88,0,0,1,.34.69C.63.29,1.33.1,1.63.43A6.12,6.12,0,0,1,2.3,1.7"/><path class="cls-2" d="M18,8.48c-1.18-.15-5.85-2.19-7.49-2.93C8,4.41,3.74,2.26,2.3,1.7"/></svg>