<svg xmlns="http://www.w3.org/2000/svg" viewBox="0 0 20.46 11.37"><defs><style>.cls-1{fill:#fff;}.cls-1,.cls-2{stroke:#000;stroke-width:0.36px;}.cls-2{fill:none;}</style></defs><title>10.2.29</title><path class="cls-1" d="M4,.18a5.52,5.52,0,0,0-3.11,1C.07,1.7,0,2,.46,2.34S.26,3,1.76,3.73s2.5.76,2.62,1.11,2,1.91,2.11,2.59,1,1.82,1,2.45-1.13.35-1.35.88c-.13.33,1,.2,1.93.2.49,0,1.35-1.42,1.42-2s1.3-.15,2,.39a7.19,7.19,0,0,0,.68.49s-2.18.35-2.13.84,1.86.71,2.58.34a10.87,10.87,0,0,0,2.84-1.84c.37-.56.37-1.2.86-1.2a2.61,2.61,0,0,0,2.35-1.69c.44-1.57,1.79-2.64,1.56-3s-1.49.46-1.91,1.39S17.56,6.84,17,6.84s-.81,0-.81,0,.27-2.65-1.59-3.75c-2.11-1.25-3.24-1.62-5.15-1.2S7,1.87,6.53,1.53A3.71,3.71,0,0,0,4,.18Z"/><path d="M3.21,1.87a.38.38,0,1,1-.37-.38A.38.38,0,0,1,3.21,1.87Z"/><path class="cls-2" d="M4.13,4.63c.51.19,2-.85,1.94-1.93"/><path class="cls-2" d="M6.4,7.17c-.07-1-.28-3.73.92-4.27"/><path class="cls-2" d="M9.53,8.91c.2-.84.19-2.31-.45-2.8"/><path class="cls-2" d="M11.8,9.56c-.67-.47.35-3.11,2-3.25"/></svg>