<svg xmlns="http://www.w3.org/2000/svg" viewBox="0 0 19.9 15.88"><defs><style>.cls-1{fill:#fff;}.cls-1,.cls-2{stroke:#000;stroke-width:0.36px;}.cls-2{fill:none;}</style></defs><title>10.2.6</title><path class="cls-1" d="M6,7.26A2.58,2.58,0,0,0,5.58,8L4.32,5.71l.32-1.48L6.08,1.71,8.46.15,7,2.19,9,.78,7.28,3.21,6.14,4.6,6,5.71l.5,1A5.36,5.36,0,0,0,6,7.26Z"/><path class="cls-1" d="M13.88,7.25a2.52,2.52,0,0,1,.43.72l1.27-2.26-.33-1.48L13.82,1.71,11.44.15l1.5,2-2-1.41,1.69,2.43L13.76,4.6l.1,1.11-.51,1A4.77,4.77,0,0,1,13.88,7.25Z"/><polyline class="cls-2" points="6.08 1.71 6.95 2.19 7.28 3.21"/><path class="cls-1" d="M10,12a3.27,3.27,0,0,0,2.38-.8c.77-.77.9-2,1.95-2.62.59-.34-1.21-3.15-4.33-3.15S5,8.2,5.62,8.54c1,.6,1.18,1.85,2,2.62A3.25,3.25,0,0,0,10,12Z"/><path class="cls-1" d="M6.63,9.67a4.88,4.88,0,0,0-.3-.48A2.4,2.4,0,0,0,6,8.83L4.19,8.17,2.67,6.62l-.1-3.93-.34,4L4,8.72Z"/><polygon class="cls-1" points="7.11 10.57 6.79 9.98 3.7 8.93 1.86 8.74 0.28 9.93 0.18 11.66 0.63 10.24 1.99 9.24 3.57 9.43 7.11 10.57"/><path class="cls-1" d="M7.52,11.12a2.78,2.78,0,0,1-.23-.28l-.18-.27-2.57-.2-1.66.53L1.54,12l-.47,2.1.87-1.76,1.28-.84L4.8,11Z"/><polyline class="cls-2" points="13.82 1.71 12.95 2.19 12.62 3.21"/><path class="cls-1" d="M13.26,9.67s.15-.26.31-.48a2.4,2.4,0,0,1,.32-.36l1.81-.66,1.52-1.55.11-3.93.34,4L15.86,8.72Z"/><polygon class="cls-1" points="12.78 10.57 13.1 9.98 16.2 8.93 18.04 8.74 19.61 9.93 19.72 11.66 19.27 10.24 17.9 9.24 16.33 9.43 12.78 10.57"/><path class="cls-1" d="M12.38,11.12a3.42,3.42,0,0,0,.22-.28,2.71,2.71,0,0,0,.18-.27l2.58-.2L17,10.9,18.35,12l.47,2.1L18,12.34l-1.29-.84L15.1,11Z"/><path class="cls-1" d="M12.38,11.12l.43.41,2,.86,1.34,1.21.58,1-1.45.89.29-1.6-1.28-.58-1.68-1.1L10,12.11h0l-2.63.13-1.68,1.1-1.29.58.29,1.6L3.2,14.63l.58-1,1.34-1.21,2-.86.44-.41.17.16A3.35,3.35,0,0,0,10,12a3.36,3.36,0,0,0,2.26-.68Z"/></svg>