<svg xmlns="http://www.w3.org/2000/svg" viewBox="0 0 13.9 15.96"><defs><style>.cls-1{fill:#fff;}.cls-1,.cls-2,.cls-3{stroke:#000;stroke-width:0.36px;}.cls-3{fill:none;}</style></defs><title>10.2.20</title><path class="cls-1" d="M10.08,1.07a8,8,0,1,1-9.9,12.5A5.52,5.52,0,0,1,1.1,10.7,7.42,7.42,0,0,1,3.36,8.42,5,5,0,0,1,2.2,5.21,5,5,0,0,1,10,1Z"/><path class="cls-2" d="M7.18,5.13a.38.38,0,1,1-.75,0,.38.38,0,0,1,.75,0Z"/><line class="cls-3" x1="3.36" y1="8.42" x2="7.06" y2="5.41"/><path class="cls-3" d="M6.7,5.09c-.44-.11,0-.77-.42-.89s-.76,1.11-1.12,1,0-1.35-.36-1.48S4,4.82,3.66,4.7s0-1.35-.32-1.47-.72,1.13-1,1"/><path class="cls-3" d="M6.77,5C6.67,4.59,8.08,4.23,8,3.82s-1.5-.09-1.6-.51,1.31-.75,1.21-1.17S6.09,2.05,6,1.63,7.29.88,7.2.46c0-.17-.42-.2-.74-.22"/><path class="cls-3" d="M6.92,5.08c.47-.26,1.37,1.31,1.85,1s-.44-1.92,0-2.18,1.39,1.41,1.87,1.15-.45-1.93,0-2.19,1.36,1.43,1.81,1.18c.1,0,.12-.19.12-.34"/><path class="cls-3" d="M6.9,5.23c.39.39-.91,1.7-.52,2.09s1.68-.92,2.06-.54-.91,1.69-.52,2.08S9.62,8,10,8.34,9.09,10,9.49,10.43s1.69-.92,2.08-.53-.93,1.68-.56,2,1.39-.66,1.88-.64"/></svg>