<svg xmlns="http://www.w3.org/2000/svg" viewBox="0 0 16.37 16.36"><defs><style>.cls-1{fill:#fff;}.cls-1,.cls-2{stroke:#000;stroke-width:0.36px;}.cls-2{fill:none;}</style></defs><title>10.2.16</title><g id="Layer_2" data-name="Layer 2"><g id="SYMBOLS"><path class="cls-1" d="M16.19,8.18a8,8,0,1,1-8-8A8,8,0,0,1,16.19,8.18Z"/><path class="cls-2" d="M8.39,7.73S10.27,4,8.82,2.79"/><path class="cls-2" d="M8,7.73S6.08,4,7.53,2.79"/><path class="cls-2" d="M7.48,9.47s-4,1.33-3.81,3.2"/><path class="cls-2" d="M7.78,9.78s-1.33,4-3.19,3.8"/><path class="cls-2" d="M8.68,9.72s1.33,4,3.19,3.8"/><path class="cls-2" d="M9,9.42s4,1.33,3.8,3.19"/><path class="cls-2" d="M9.51,8.56s3.76,1.88,4.94.43"/><path class="cls-2" d="M9.51,8.13s3.76-1.88,4.94-.43"/><path class="cls-2" d="M6.86,8.56S3.1,10.44,1.91,9"/><path class="cls-2" d="M6.86,8.13S3.1,6.25,1.91,7.7"/></g></g></svg>