<svg xmlns="http://www.w3.org/2000/svg" viewBox="0 0 13.93 15.85"><defs><style>.cls-1{fill:#fff;}.cls-1,.cls-2{stroke:#000;stroke-width:0.36px;}.cls-2{fill:none;}</style></defs><title>10.2.4</title><path class="cls-1" d="M7,.18c1,0,2.48,4.08,1.9,4.76s.73.57.32,2.75-1.15,2.64-1,3,.93,3.89.27,4.54a2.07,2.07,0,0,1-.54.45H6a2,2,0,0,1-.53-.45c-.66-.65.08-4.19.26-4.54s-.55-.81-1-3,.9-2.07.31-2.75S6,.18,7,.18Z"/><polyline class="cls-2" points="5.18 5.12 6.96 6.55 8.75 5.12"/><polyline class="cls-2" points="5.63 10.91 6.96 10.64 8.3 10.91"/><polygon class="cls-1" points="8.3 10.21 8.41 10 10.6 9.47 11.81 10.41 12.65 11.68 11.43 10.43 10.42 9.9 8.22 10.41 8.3 10.21"/><polygon class="cls-1" points="4.89 8.35 4.85 8.16 2.88 7.22 1.7 7.62 0.15 5.92 1.51 7.85 2.73 7.48 4.95 8.54 4.89 8.35"/><polygon class="cls-1" points="4.69 6.49 4.75 6.22 4.33 6.1 2.56 5.07 1.31 4.71 0.56 2.58 1.04 4.84 2.45 5.39 4.33 6.53 4.67 6.75 4.69 6.49"/><polygon class="cls-1" points="9.04 8.35 9.09 8.16 11.05 7.22 12.23 7.62 13.79 5.92 12.42 7.85 11.2 7.48 8.98 8.54 9.04 8.35"/><polygon class="cls-1" points="9.24 6.49 9.18 6.22 9.61 6.1 11.37 5.07 12.63 4.71 13.38 2.58 12.89 4.84 11.48 5.39 9.61 6.53 9.27 6.75 9.24 6.49"/><polygon class="cls-1" points="5.63 10.21 5.52 10 3.33 9.47 2.13 10.41 1.28 11.68 2.5 10.43 3.52 9.9 5.71 10.41 5.63 10.21"/><path d="M6.29,2.07A.3.3,0,0,1,6,2.38a.29.29,0,0,1-.28-.31A.29.29,0,0,1,6,1.76.3.3,0,0,1,6.29,2.07Z"/><path d="M8.24,2.07A.29.29,0,0,1,8,2.38a.3.3,0,0,1-.28-.31A.3.3,0,0,1,8,1.76.29.29,0,0,1,8.24,2.07Z"/></svg>