<svg xmlns="http://www.w3.org/2000/svg" viewBox="0 0 8.67 16.06"><defs><style>.cls-1{fill:#fff;}.cls-1,.cls-2{stroke:#000;stroke-width:0.36px;}.cls-2{fill:none;}</style></defs><title>10.2.57</title><path class="cls-1" d="M4.55,2S7.94,6.55,8.36,8.87a12.24,12.24,0,0,1-.5,5.41c-.23.84-.72,1.33-1,1.37A7.75,7.75,0,0,1,5,14.7s-1,1.18-1.9,1.18A3.74,3.74,0,0,1,.59,14.17,24.34,24.34,0,0,1,.21,9,9.22,9.22,0,0,1,1.54,5.63C2.23,4.64,4.55,2,4.55,2Z"/><path class="cls-2" d="M.25,10.58a10.31,10.31,0,0,0,3.65.61c.88,0,3.35-.07,4.53-.76"/><path class="cls-2" d="M.32,12.15a12,12,0,0,0,4,.49,9.16,9.16,0,0,0,4-.64"/><path class="cls-2" d="M4.36,8.71a.87.87,0,1,0-.86-.87A.87.87,0,0,0,4.36,8.71Z"/><line class="cls-2" x1="4.54" x2="4.54" y2="2.02"/></svg>