<svg xmlns="http://www.w3.org/2000/svg" viewBox="0 0 16.3 15.81"><defs><style>.cls-1{fill:none;stroke:#000;stroke-width:0.36px;}</style></defs><title>10.2.13</title><g id="Layer_2" data-name="Layer 2"><g id="SYMBOLS"><path class="cls-1" d="M.14,8.38A5,5,0,0,0,6.5,9.54"/><path class="cls-1" d="M16.16,7.45A5,5,0,0,0,9.81,6.29"/><path class="cls-1" d="M2.17,2.64A5,5,0,0,0,5.84,8"/><path class="cls-1" d="M14.16,13.31A5,5,0,0,0,10.48,8"/><path class="cls-1" d="M2.84,13.89a5,5,0,0,0,5.31-3.68"/><path class="cls-1" d="M13.5,1.9A5,5,0,0,0,8.19,5.57"/><path class="cls-1" d="M8.66.16a5,5,0,0,0-2.11,6.1"/><path class="cls-1" d="M7.68,15.65A5,5,0,0,0,9.8,9.55"/></g></g></svg>