<svg xmlns="http://www.w3.org/2000/svg" viewBox="0 0 20.15 10.08"><defs><style>.cls-1{fill:#fff;}.cls-1,.cls-2,.cls-3{stroke:#000;stroke-width:0.36px;}.cls-2{fill:none;}</style></defs><title>10.2.28</title><path class="cls-1" d="M3.93,4.9c2.16-1.26,5-2.47,7.37-2.47,4.57,0,8.53,3.19,8.53,3.19a18.86,18.86,0,0,1-8.28,2.11A13.77,13.77,0,0,1,4,4.94Z"/><path class="cls-2" d="M.14,7.77A16.16,16.16,0,0,1,3.88,4.91h.05A11.83,11.83,0,0,1,.51,1.34"/><polygon class="cls-3" points="12.88 7.65 10.45 9.95 11.36 7.73 12.88 7.65"/><polygon class="cls-3" points="12.38 2.48 12.27 0.09 13.77 2.7 12.38 2.48"/></svg>