<svg xmlns="http://www.w3.org/2000/svg" viewBox="0 0 13.22 17.91"><defs><style>.cls-1{fill:#fff;}.cls-1,.cls-2{stroke:#000;stroke-width:0.36px;}.cls-2{fill:none;}</style></defs><title>10.2.7</title><path class="cls-1" d="M6.64,15.31l1.6-.66c.68-.29,1.52-.73,1.55-4.36S9,7.22,9,6.7A6.25,6.25,0,0,0,8.4,4.6C8,3.63,7,3.68,7.51,3.5c1-.34-.29-1.21-.9-1.26h0c-.61,0-1.87.92-.89,1.26.52.18-.53.13-.9,1.1a6,6,0,0,0-.57,2.1c0,.52-.84,0-.82,3.59S4.3,14.36,5,14.65l1.6.66Z"/><path class="cls-1" d="M3.45,11.13v-.45s-1.4.92-1.33,1.9,1.5,2.21,1.48,2.49,0,1.66,0,1.66l-.73,1.05L4,16.57l0-1.81S2.3,12.7,2.51,12.49l1-1Z"/><path class="cls-1" d="M3.81,7.39l.11-.18L4,7.08s-.69-.16-.9,0-1.48,2-1.48,2L.12,10.48,1.88,9.33A17,17,0,0,1,3.12,7.62a.78.78,0,0,1,.58,0Z"/><path class="cls-1" d="M4.67,5,4,4.83,3.8,3.28,2.44,2.37l1.1,1A5.07,5.07,0,0,0,3.82,5c.21.21.65.59.65.59Z"/><path class="cls-1" d="M6,2.43A5.25,5.25,0,0,0,4.2.94,6.62,6.62,0,0,1,2.61.15,6,6,0,0,0,4,1.08,10.46,10.46,0,0,1,5.9,2.51Z"/><path class="cls-2" d="M6.21,2.35s-.28-.56.2-.58"/><path class="cls-1" d="M9.77,11.13l0-.45s1.39.92,1.32,1.9-1.5,2.21-1.48,2.49,0,1.66,0,1.66l.72,1.05L9.23,16.57l0-1.81s1.71-2.06,1.5-2.27l-1-1Z"/><path class="cls-1" d="M9.41,7.39,9.3,7.21l-.1-.13s.69-.16.9,0,1.48,2,1.48,2l1.52,1.39L11.34,9.33A17,17,0,0,0,10.1,7.62a.78.78,0,0,0-.58,0Z"/><path class="cls-1" d="M8.54,5l.65-.16.23-1.55,1.36-.91-1.1,1A5.07,5.07,0,0,1,9.4,5c-.21.21-.65.59-.65.59Z"/><path class="cls-1" d="M7.19,2.43A5.25,5.25,0,0,1,9,.94a6.81,6.81,0,0,0,1.6-.79,6.11,6.11,0,0,1-1.41.93A10.46,10.46,0,0,0,7.32,2.51Z"/><path class="cls-2" d="M7,2.35s.28-.56-.2-.58"/><path d="M6.09,2.63c-.11-.1-.34,0-.53.15s-.25.42-.14.52.34,0,.52-.14S6.19,2.74,6.09,2.63Z"/><path d="M7.14,2.63c-.1.11,0,.34.15.53s.41.24.52.14,0-.34-.15-.52S7.25,2.53,7.14,2.63Z"/><path class="cls-2" d="M5.8,3.65a2.2,2.2,0,0,1,.81-.24,2,2,0,0,1,.81.24"/><polyline class="cls-2" points="4.25 6.58 5.66 6.58 5.97 6.89 7.29 6.89 7.64 6.53 8.97 6.53"/><polyline class="cls-2" points="4.4 14.3 6.6 13.2 8.82 14.3"/><line class="cls-2" x1="6.59" y1="13.2" x2="6.59" y2="6.89"/></svg>