<svg xmlns="http://www.w3.org/2000/svg" viewBox="0 0 11.99 17.07"><defs><style>.cls-1{stroke:#000;stroke-width:0.36px;}</style></defs><title>10.2.33</title><path class="cls-1" d="M10.7.21A23.76,23.76,0,0,0,8,3.54C7.59,4.38,7.32,7,6.59,7.7S3.52,9.34,2.89,9.92A14.41,14.41,0,0,0,.2,13.29c-.26.74,1.74-3.06,4.22-3.11,1.27,0,1.85.63,2,1.27a13.1,13.1,0,0,1-.21,5.27c-.16.61.81-.53,1-1.16.37-1.21.26-3.67.43-4s1.11.16,1.26.37a32.42,32.42,0,0,1,2.43,3.53c.08.19.15-1,0-1.63S9.8,11.39,9.17,10.18a4.49,4.49,0,0,1-.74-3.11A15.94,15.94,0,0,1,10.7,2.64c.58-.58,1.05-1,1.1-1.27S11.07.37,10.7.21Z"/></svg>