<svg xmlns="http://www.w3.org/2000/svg" viewBox="0 0 13.12 15.93"><defs><style>.cls-1{fill:#fff;}.cls-1,.cls-2{stroke:#000;stroke-width:0.36px;}.cls-2{fill:none;}</style></defs><title>10.2.8</title><path class="cls-1" d="M11.43,5.24c0,4.5-3.43,8.15-4.87,8.15S1.69,9.74,1.69,5.24Z"/><path class="cls-1" d="M12.26,5.24l.68,2v-2h0c0-2.8-2.86-5.06-6.38-5.06S.18,2.44.18,5.24h0v2l.68-2h11.4Z"/><path class="cls-1" d="M7.91,5.26C7.91.19,7.3.73,6.56.73S5.21.19,5.21,5.26a32.7,32.7,0,0,0,1.35,9.18A32.7,32.7,0,0,0,7.91,5.26Z"/><polyline class="cls-2" points="5.24 6.53 1.78 6.53 0.72 8.27"/><polyline class="cls-2" points="5.38 8.42 2.27 8.42 1.22 10.6"/><polyline class="cls-2" points="5.83 11.48 4.47 12.02 3.73 14.31"/><polyline class="cls-2" points="5.59 10.11 3.26 10.45 2.28 12.6"/><polyline class="cls-2" points="6.01 12.35 5.74 13.09 6.21 15.9"/><polyline class="cls-2" points="7.88 6.53 11.33 6.53 12.39 8.27"/><polyline class="cls-2" points="7.74 8.42 10.85 8.42 11.9 10.6"/><polyline class="cls-2" points="7.29 11.48 8.64 12.02 9.39 14.31"/><polyline class="cls-2" points="7.53 10.11 9.85 10.45 10.84 12.6"/><polyline class="cls-2" points="7.11 12.35 7.38 13.09 6.91 15.9"/><path class="cls-2" d="M5,2.46a1.21,1.21,0,0,0-.4,2.22"/><path class="cls-2" d="M8.15,2.46a1.21,1.21,0,0,1,.4,2.22"/></svg>