<svg xmlns="http://www.w3.org/2000/svg" viewBox="0 0 11.56 17.82"><defs><style>.cls-1{fill:#fff;stroke:#000;stroke-width:0.36px;}</style></defs><title>10.2.27</title><g id="Layer_2" data-name="Layer 2"><g id="SYMBOLS"><path class="cls-1" d="M6.16,11.19a2.42,2.42,0,0,0,1.86.6,2.26,2.26,0,0,1,1.19.41A13.26,13.26,0,0,0,7.6,13.58a5.37,5.37,0,0,0-1,2.39c0,.36,2.39,2,2.93,1.62s-1.91-1.8-1.91-1.8a19.44,19.44,0,0,1,1.2-1.55c.54-.6,2.27-.9,2.39-1.86S7.72,9.57,7.72,9.57a5.61,5.61,0,0,0,.54-1.85A4.24,4.24,0,0,0,7.72,5.5a4.76,4.76,0,0,0,1.63.36c.37-.12,2.4-3.11,2-3.35S9.27,4.65,9,4.65a7.52,7.52,0,0,1-1.61-1V2A2.37,2.37,0,0,0,5.75.18H5.69A2.37,2.37,0,0,0,4.07,2V3.65a7.52,7.52,0,0,1-1.61,1c-.3,0-1.68-2-2.1-1.78s1.38,2.87,1.74,3A4.57,4.57,0,0,0,3.71,5.5a4.24,4.24,0,0,0-.54,2.22,5.61,5.61,0,0,0,.54,1.85S.06,11.43.18,12.38,2,13.64,2.58,14.24s1.19,1.55,1.19,1.55-2.45,1.44-1.91,1.8S4.79,16.33,4.79,16a5.37,5.37,0,0,0-1-2.39A13.26,13.26,0,0,0,2.22,12.2a2.26,2.26,0,0,1,1.19-.41,2.42,2.42,0,0,0,1.86-.6Z"/></g></g></svg>