<svg xmlns="http://www.w3.org/2000/svg" viewBox="0 0 16.15 15.99"><defs><style>.cls-1{fill:#fff;}.cls-1,.cls-2{stroke:#000;stroke-width:0.36px;}.cls-2{fill:none;}</style></defs><title>10.2.18</title><g id="Layer_2" data-name="Layer 2"><g id="SYMBOLS"><path class="cls-1" d="M9.35,1.09a20.52,20.52,0,0,1,3.91.3c1.18.42,1,3.36,1,3.36L2,4.72s-.21-2.91,1-3.33a20.43,20.43,0,0,1,3.9-.3"/><path class="cls-1" d="M8.15.18s6.59,5,7.11,5.3S16,7.15,16,7.15c0,5.47-3.53,8.66-7.88,8.66h0C3.71,15.81.18,12.62.18,7.15c0,0,.18-1.37.71-1.67S8.06.18,8.06.18Z"/><line class="cls-2" x1="7.97" y1="1.57" x2="0.59" y2="8.95"/><line class="cls-2" x1="7.96" y1="1.82" x2="2.41" y2="12.69"/><line class="cls-2" x1="7.97" y1="2.38" x2="5.64" y2="14.96"/><line class="cls-2" x1="8.06" y1="1.57" x2="15.44" y2="8.95"/><line class="cls-2" x1="8.07" y1="1.82" x2="13.62" y2="12.69"/><line class="cls-2" x1="8.06" y1="2.38" x2="10.39" y2="14.96"/></g></g></svg>