<svg xmlns="http://www.w3.org/2000/svg" viewBox="0 0 16.59 10.9"><defs><style>.cls-1{fill:#fff;}.cls-1,.cls-2,.cls-3{stroke:#000;stroke-width:0.36px;}.cls-2{fill:none;}</style></defs><title>10.2.52</title><path class="cls-1" d="M8.22,10.72c4.45,0,8.19-2.38,8.19-5.19S12.61.18,8.17.18s-8,2.48-8,5.3S3.78,10.72,8.22,10.72Z"/><line class="cls-2" x1="2.17" y1="2.05" x2="3.33" y2="3.47"/><line class="cls-2" x1="5.35" y1="0.57" x2="6.01" y2="2.42"/><line class="cls-2" x1="8.43" y1="0.22" x2="8.53" y2="2.23"/><line class="cls-2" x1="12.01" y1="0.86" x2="11.29" y2="2.52"/><line class="cls-2" x1="0.21" y1="5.35" x2="2.23" y2="5.51"/><line class="cls-2" x1="3.11" y1="7.21" x2="1.92" y2="8.69"/><line class="cls-2" x1="5.55" y1="8.59" x2="4.95" y2="10.24"/><line class="cls-2" x1="8.45" y1="8.91" x2="8.45" y2="10.71"/><line class="cls-2" x1="11.21" y1="8.66" x2="11.97" y2="10.13"/><line class="cls-2" x1="13.72" y1="7.26" x2="15.03" y2="8.37"/><line class="cls-2" x1="13.43" y1="3.72" x2="14.78" y2="2.45"/><line class="cls-2" x1="14.35" y1="5.33" x2="16.39" y2="5.38"/><path class="cls-3" d="M6.06,6.16a.69.69,0,1,0-.69-.69A.69.69,0,0,0,6.06,6.16Z"/><path class="cls-3" d="M10.8,6.17a.69.69,0,1,0-.69-.69A.68.68,0,0,0,10.8,6.17Z"/></svg>